<?xml version="1.0" encoding="UTF-8"?>
<svg id="Layer_1" xmlns="http://www.w3.org/2000/svg" version="1.1" viewBox="0 0 512 512">
  <!-- Generator: Adobe Illustrator 29.6.0, SVG Export Plug-In . SVG Version: 2.1.1 Build 207)  -->
  <defs>
    <style>
      .st0 {
        fill: #ff7100;
      }

      .st1 {
        fill: #018ee5;
      }

      .st2 {
        fill: #ff7001;
      }

      .st3 {
        fill: #ff6f00;
      }

      .st4 {
        fill: #ff6f02;
      }

      .st5 {
        fill: #fffffe;
      }
    </style>
  </defs>
  <path class="st3" d="M69.3,416.44c-8.27-.35-14.93-7.78-15.06-16.08-.18-95.89.8-191.92-.37-287.76-.02-1.93.24-3.88.92-5.69,2.74-7.2,10.47-12.17,18.37-11.25.69.08,1.38.16,2.07.16,48.62.32,97.51-.57,146.03.21,3.21.05,6.36.97,9,2.79,1.9,1.31,3.67,2.81,5.35,4.44,17.34,17.52,34.77,34.84,52.15,52.26,1.11,1.12,2.17,2.29,3.08,3.56,1.53,2.13,2.41,4.66,2.77,7.26,1.02,7.25-.38,14.93.07,22.05.31,4.04-1.14,6.29-5.39,5.94-13.89.6-28.11-1.63-41.72,1.29-17.57,3.78-28.77,19.41-28.59,37.03-.39,30.35-2.04,58.14-.27,84.09.04.6.04,1.2.02,1.8-.71,15.95,2.76,31.94,16.91,40.94,5.8,3.31,12.03,5.65,18.65,6.65,3.35.62,7,.66,10.18,1.87,6.75,2.5,5.01,11.1,5.24,17.38-.18,10.3,1.4,19.21-4.6,25.61-3,3.2-7.26,4.91-11.64,4.99-60.91,1.14-122.05-.35-183,.5"/>
  <path class="st1" d="M104.43,280.87c.02,12.87.02,25.69-.01,38.6-.49,5.85,4.76,11.8,10.74,8.77,26.14-16.24,52.74-32.08,78.22-49.3,7.64-8.11-4.74-13.73-10.48-17.67-21.34-13.78-42.92-27.67-64.41-41.43-7.83-5.5-14.59-.97-14.06,8.28.03,17.37.02,34.96.01,52.75Z"/>
  <path class="st5" d="M252.96,209.16c237.46,7.61,202.31-41.99,204.45,115.83,1.11,16.07-7.01,27.97-24.07,27-24.07.05-48.2.01-72.29.07-3-.06-6.12.31-8.4,2.44-16.95,16.23-33.29,33.08-49.96,49.62-7.53,9.22-20.21,6.25-19.33-6.62-1.36-56.21,8.37-42.58-29.64-46.24-9.46-1.48-18.99-8.14-20.93-17.97-.98-30.27-.07-59.95-.44-89.97-1.59-15.85,2.16-31.38,20.43-34.14"/>
  <path class="st2" d="M377.9,307.86c-3.6-5.68-7.37-11.44-11.03-17.23-.42-.7-.8-1.58-.56-2.34.25-.95,1.46-1.75,2.36-2.33,11.77-6.9,12.49-23.92,4.2-33.23l-.12-.14c-8.03-8.01-28.47-6.29-39.45-6.49-1.79.13-4.49-.33-5.72,1.13-.8,1.27-.63,3.47-.67,5.04-.01,19.43.02,38.82-.02,58.22-.12,3.52,3.74,2.54,6.05,2.6,6.44.18,7.76-.78,7.52-7.34.05-4.02.06-8.03.36-12.14.11-1.58,1.19-2.82,2.78-3.02,2.02-.28,4.24-.36,5.94.62,2.18,1.32,3.17,3.91,4.44,6.01,2.46,4.51,5.15,8.97,7.91,13.33.52.8,1.14,1.58,1.95,2.02,2.73,1.17,6.77.33,9.87.51,4.58.17,7.04-.71,4.2-5.24ZM341.13,278.09v-17.72s20.36-3.09,20.36,9.89c0,12.16-20.36,7.83-20.36,7.83Z"/>
  <path class="st4" d="M316.32,286.47c3.57,10.72.19,22.49-12.92,27.07-10.56,3.29-22.2,3.08-31.62-3.37-3.38-2.31-6.1-5.74-8.08-9.26-1.13-2.19.93-3.63,2.73-4.39,2.41-.9,5.42-3.36,7.84-2.55,1.28.47,2.16,1.77,3.06,2.77,2.75,3.23,6.33,5.21,10.66,5.83,5.57,1.21,15.11-2.39,12.6-9.37-1.51-3.11-5.47-4.4-8.51-5.74-7.71-3.17-16.65-3.93-22.67-10.31-7.76-8.12-6.46-22.66,2.51-29.32,11.01-7.97,30.84-6.63,40.66,3.03,4.51,4.54,4.29,6.67-1.49,9.57-4.21,2.19-5.67,2.42-9.1-.85-4.48-4.15-11.14-5.68-16.56-3.21-4.46,1.82-6.76,6.96-2.25,10.21,10.7,7.09,27.93,5.84,33.08,19.7l.07.17Z"/>
  <path class="st0" d="M415.98,258.66c-.6.86-.66,2.2-.69,3.32-.35,16.64-.2,32.72-.57,49.12-.03,1.77-1.44,2.39-2.97,2.27-2.42-.09-4.7-.04-7.06-.17-3.25.02-3.14-2.64-3.14-5.17-.01-15.3-.03-30.46.02-45.74-.03-1.32.02-2.99-.77-4.01-.74-.97-2.1-1.1-3.27-1.14-4.15-.12-8.22.25-12.33-.19-2.62-.49-2.33-3.33-2.43-5.84.04-1.75-.78-4.73,1.65-5.09,14.21-.03,28.44.02,42.69,0,5.64-.09,6.65.44,6.53,6.59.04,1.76.27,4.31-1.97,4.45-4,.2-8.1-.06-11.99.12-1.28.11-2.79.26-3.61,1.34l-.09.13Z"/>
</svg>